<?xml version="1.0" encoding="UTF-8"?>
<svg id="Layer_1" data-name="Layer 1" xmlns="http://www.w3.org/2000/svg" viewBox="0 0 701.36396 277.18056">
  <defs>
    <style>
      .cls-1 {
        fill: #000d61;
        stroke-width: 0px;
      }
    </style>
  </defs>
  <g>
    <path class="cls-1" d="m440.78719,39.04058h-31.10951v-8.94079c0-4.172-.39807-6.82848-1.19359-7.97193-.79552-1.14221-2.12221-1.71362-3.97822-1.71362-2.01697,0-3.54053.77076-4.57502,2.31227-1.03449,1.5409-1.55142,3.87608-1.55142,7.00801,0,4.02527.58008,7.05754,1.74396,9.09494,1.11001,2.03864,4.26548,4.49702,9.46577,7.37513,14.91122,8.28704,24.30208,15.08766,28.17444,20.40186,3.87174,5.31544,5.80823,13.88354,5.80823,25.7043,0,8.59348-1.07411,14.92608-3.22232,18.9984-2.14822,4.07356-6.29916,7.4878-12.45161,10.24458-6.1543,2.75616-13.31461,4.13485-21.48278,4.13485-8.96431,0-16.61679-1.59042-22.95434-4.76817-6.33879-3.17837-10.49035-7.22717-12.45161-12.14454-1.96311-4.91737-2.94436-11.89505-2.94436-20.93551v-7.89764h31.11013v14.67783c0,4.51992.43769,7.42589,1.31245,8.71668.87538,1.29203,2.4268,1.93711,4.65488,1.93711,2.22746,0,3.88474-.81967,4.97247-2.45838,1.08649-1.63933,1.63128-4.07232,1.63128-7.30146,0-7.10273-1.03449-11.74647-3.10284-13.93245-2.12221-2.18536-7.34727-5.83547-15.67455-10.95219-8.3279-5.16501-13.84392-8.91479-16.54931-11.24997-2.70539-2.33394-4.94647-5.56246-6.72324-9.68555-1.778-4.12247-2.66515-9.38777-2.66515-15.79465,0-9.23857,1.25921-15.99276,3.77888-20.26505,2.51905-4.27167,6.59013-7.61162,12.21326-10.02109,5.62189-2.40885,12.41198-3.61358,20.36843-3.61358,8.69873,0,16.11224,1.31679,22.23868,3.94913,6.12644,2.63296,10.18453,5.94814,12.17364,9.94618,1.98911,3.99865,2.98336,10.79123,2.98336,20.37648v4.76879Z"/>
    <path class="cls-1" d="m531.09399,2.53329v120.62203h-33.49731v-50.66261h-10.02666v50.66261h-33.49546V2.53329h33.49546v43.13767h10.02666V2.53329h33.49731Z"/>
    <path class="cls-1" d="m621.08135,73.16317c0,12.11978-.30583,20.70026-.915,25.74083-.61042,5.04181-2.51967,9.6484-5.72775,13.82102-3.21056,4.172-7.54662,7.37575-13.0094,9.61064-5.46402,2.23551-11.82943,3.35295-19.09622,3.35295-6.89534,0-13.0874-1.05615-18.57743-3.16661s-9.90656-5.27706-13.24837-9.4992c-3.34181-4.2209-5.3303-8.81573-5.96672-13.78325-.63642-4.96628-.95463-13.65882-.95463-26.07637v-20.63773c0-12.11854.30459-20.69902.915-25.74083.60918-5.04119,2.51843-9.6484,5.72775-13.82102,3.20932-4.172,7.54538-7.37575,13.0094-9.61064,5.46278-2.23551,11.82819-3.35295,19.09498-3.35295,6.89534,0,13.08864,1.05615,18.57867,3.16661,5.49002,2.11169,9.90656,5.2783,13.24837,9.4992,3.34181,4.22214,5.3303,8.81697,5.96672,13.78325.63642,4.96752.95463,13.66005.95463,26.07637v20.63773Zm-33.49608-39.63614c0-5.6126-.33183-9.20142-.99548-10.76584s-2.02811-2.34694-4.09709-2.34694c-1.75077,0-3.09046.63332-4.01785,1.89996-.92862,1.26664-1.39294,5.00466-1.39294,11.21282v56.32474c0,7.00368.30459,11.32488.915,12.96421.60918,1.63871,2.02935,2.45838,4.25681,2.45838,2.2807,0,3.73926-.94286,4.37691-2.83106.63642-1.88696.95463-6.38212.95463-13.48547v-55.43079Z"/>
    <path class="cls-1" d="m701.04452,2.53329v24.13926h-19.89112v96.48277h-33.49731V26.67255h-19.81188V2.53329h73.20031Z"/>
  </g>
  <g>
    <path class="cls-1" d="m369.17916,135.1779v142.00266h332.1848v-142.00266h-332.1848Zm77.86819,55.13672c0,7.69891-.7949,13.31151-2.38347,16.83781-1.59104,3.52753-4.50816,6.23416-8.75506,8.12112-4.24691,1.8882-9.79636,2.83045-16.65084,2.83045h-8.41952v48.57693h-31.36643v-120.62203h31.59054c8.5421,0,15.11057.67109,19.7054,2.01202,4.59359,1.34093,8.04683,3.27742,10.35601,5.81071,2.31042,2.53329,3.87422,5.60022,4.69388,9.20204.81967,3.60182,1.2295,9.17604,1.2295,16.72513v10.50583Zm81.13447,76.3663h-31.36643v-50.66323h-9.38653v50.66323h-31.36643v-120.62203h31.36643v43.13767h9.38653v-43.13767h31.36643v120.62203Zm84.26455-49.99215c0,12.11916-.28602,20.70088-.85681,25.74145-.57079,5.04181-2.35994,9.64778-5.36373,13.8204-3.00626,4.17138-7.06621,7.37575-12.18231,9.61064s-11.07662,3.35295-17.88034,3.35295c-6.45703,0-12.25659-1.05615-17.39622-3.16599-5.14086-2.11107-9.27633-5.27706-12.40517-9.50044-3.13008-4.2209-4.99228-8.81573-5.58784-13.78325-.5968-4.96504-.89396-13.6582-.89396-26.07575v-20.63773c0-12.11792.28478-20.69964.85681-25.74145.56956-5.04057,2.3587-9.64778,5.36373-13.8204,3.00503-4.17138,7.06497-7.37575,12.18107-9.61064s11.07662-3.35295,17.88158-3.35295c6.45579,0,12.25536,1.05615,17.39622,3.16599,5.14086,2.11231,9.27633,5.2783,12.40517,9.50044,3.12884,4.22214,4.99228,8.81697,5.58784,13.78325.59556,4.96628.89396,13.65944.89396,26.07575v20.63773Zm83.3706,0c0,12.11916-.28725,20.70088-.85681,25.74145-.57203,5.04181-2.35994,9.64778-5.36497,13.8204-3.00503,4.17138-7.06621,7.37575-12.18107,9.61064-5.1161,2.23489-11.07662,3.35295-17.88158,3.35295-6.45703,0-12.25536-1.05615-17.39622-3.16599-5.14086-2.11107-9.27509-5.27706-12.40517-9.50044-3.12884-4.2209-4.99104-8.81573-5.58784-13.78325-.59556-4.96504-.89396-13.6582-.89396-26.07575v-20.63773c0-12.11792.28602-20.69964.85681-25.74145.57079-5.04057,2.3587-9.64778,5.36497-13.8204,3.00379-4.17138,7.06497-7.37575,12.18107-9.61064,5.11486-2.23489,11.07539-3.35295,17.88034-3.35295,6.45703,0,12.25659,1.05615,17.39746,3.16599,5.14086,2.11231,9.27509,5.2783,12.40517,9.50044,3.12884,4.22214,4.99104,8.81697,5.58784,13.78325.59556,4.96628.89396,13.65944.89396,26.07575v20.63773Z"/>
    <path class="cls-1" d="m576.31178,163.94047c-1.63933,0-2.89359.6327-3.76155,1.89935-.87043,1.26664-1.30379,5.00466-1.30379,11.21282v56.32536c0,7.00306.28478,11.32426.85557,12.96359s1.90058,2.45776,3.98689,2.45776c2.1346,0,3.50153-.94224,4.09709-2.83045.5968-1.88696.89396-6.3815.89396-13.48485v-55.43141c0-5.6126-.31078-9.2008-.9311-10.76584-.62156-1.56504-1.89935-2.34632-3.83707-2.34632Z"/>
    <path class="cls-1" d="m659.68238,163.94047c-1.63933,0-2.89483.6327-3.76278,1.89935-.86919,1.26664-1.30379,5.00466-1.30379,11.21282v56.32536c0,7.00306.28478,11.32426.85681,12.96359.57079,1.63933,1.89935,2.45776,3.98565,2.45776,2.13583,0,3.50153-.94224,4.09833-2.83045.59556-1.88696.89396-6.3815.89396-13.48485v-55.43141c0-5.6126-.31078-9.2008-.9311-10.76584-.62156-1.56504-1.90058-2.34632-3.83707-2.34632Z"/>
    <path class="cls-1" d="m410.83846,166.69663v30.69535c.89396.05076,1.66409.07429,2.30918.07429,2.88121,0,4.88085-.70699,5.99767-2.12345,1.11806-1.41522,1.67648-4.35834,1.67648-8.82812v-9.90903c0-4.12185-.64632-6.80495-1.93649-8.04683-1.29264-1.24064-3.97451-1.8622-8.04683-1.8622Z"/>
  </g>
  <path class="cls-1" d="m278.57538,132.80664l.66744-.86536c20.81281-26.98461,6.07233-73.12408-23.36143-73.12408h-74.43755c-8.76224,0-17.1656,4.51297-23.36144,12.5461-.22248.28845-.44496.5769-.66744.86536-20.81282,26.98459-6.07232,73.12409,23.36144,73.12409h74.43755c8.76224,0,17.16559-4.51297,23.36143-12.54611Z"/>
  <path class="cls-1" d="m93.03344,155.70178C62.02231,195.90891,31.01118,236.11603,0,276.32315h167.88331l93.0334-120.62136H93.03344Z"/>
  <path class="cls-1" d="m343.62435,48.46816l12.42041-16.10354V4.14347h-146.11677c-11.39562,14.77492-22.79128,29.54977-34.1869,44.32469h167.88326Z"/>
  <polygon class="cls-1" points="356.04476 147.26919 356.04476 61.99988 346.93058 61.99988 280.18705 147.26919 356.04476 147.26919"/>
  <polygon class="cls-1" points="272.205 155.70178 179.1716 276.32315 356.04476 276.32315 356.04476 155.70178 272.205 155.70178"/>
</svg>